<?xml version="1.0" encoding="UTF-8"?>
<!DOCTYPE svg PUBLIC "-//W3C//DTD SVG 1.1//EN" "http://www.w3.org/Graphics/SVG/1.1/DTD/svg11.dtd">
<svg xmlns="http://www.w3.org/2000/svg" version="1.1" width="500px" height="300px" style="shape-rendering:geometricPrecision; text-rendering:geometricPrecision; image-rendering:optimizeQuality; fill-rule:evenodd; clip-rule:evenodd" xmlns:xlink="http://www.w3.org/1999/xlink">
<g><path style="opacity:0.939" fill="#020202" d="M 105.5,41.5 C 115.676,42.1838 120.342,47.6838 119.5,58C 116.664,76.1705 109.83,92.6705 99,107.5C 98.2455,116.229 99.7455,124.562 103.5,132.5C 104.328,133.415 105.328,134.081 106.5,134.5C 109.47,133.363 111.636,131.363 113,128.5C 118.705,118.433 122.705,107.766 125,96.5C 127.167,90.3333 131.333,86.1667 137.5,84C 143.691,83.7278 149.857,83.2278 156,82.5C 157.711,82.4393 159.044,83.1059 160,84.5C 160.135,99.6765 159.635,114.843 158.5,130C 158.833,132.5 159.167,135 159.5,137.5C 166.134,127.069 172.134,116.236 177.5,105C 172.441,94.1033 169.774,82.77 169.5,71C 172.227,70.1816 174.894,70.3483 177.5,71.5C 180.611,78.7223 183.444,86.0556 186,93.5C 189.539,86.2499 193.706,79.4165 198.5,73C 201.554,72.1786 204.554,72.3452 207.5,73.5C 201.496,84.0072 196.163,94.8405 191.5,106C 194.834,116.666 199.501,126.666 205.5,136C 206.833,136.667 208.167,136.667 209.5,136C 217.374,128.938 220.374,120.272 218.5,110C 218.955,98.7534 220.121,87.5868 222,76.5C 224.93,74.8409 227.93,74.5076 231,75.5C 232.03,79.7727 232.697,84.106 233,88.5C 237.036,79.8262 243.536,76.9928 252.5,80C 255.467,82.1005 257.3,84.9338 258,88.5C 259.026,93.7848 259.693,99.1181 260,104.5C 263.499,98.8297 268.332,94.8297 274.5,92.5C 278.87,93.3706 281.37,96.0373 282,100.5C 282.945,108.177 283.945,115.843 285,123.5C 285.196,125.286 286.029,126.619 287.5,127.5C 295.218,119.394 299.718,109.728 301,98.5C 303.099,91.4017 307.599,86.5683 314.5,84C 321.517,83.3983 328.517,83.065 335.5,83C 336,83.5 336.5,84 337,84.5C 337.033,99.1718 336.533,113.838 335.5,128.5C 335.833,131.5 336.167,134.5 336.5,137.5C 342.094,129.318 346.927,120.651 351,111.5C 351.133,101.03 352.299,90.697 354.5,80.5C 357.468,78.3382 360.634,78.0048 364,79.5C 364.333,86.8333 364.667,94.1667 365,101.5C 367.601,94.24 371.768,88.0733 377.5,83C 386.151,78.5509 391.651,81.0509 394,90.5C 394.166,102.172 394.166,113.838 394,125.5C 394.133,128.525 395.133,131.192 397,133.5C 398.667,132.5 400,131.167 401,129.5C 405.444,121.499 409.111,113.165 412,104.5C 413.904,103.353 415.404,103.853 416.5,106C 414.18,116.478 409.847,125.978 403.5,134.5C 399.608,137.326 395.275,138.159 390.5,137C 388.106,135.048 386.606,132.548 386,129.5C 385.122,125.211 384.622,120.878 384.5,116.5C 385.73,106.484 385.73,96.484 384.5,86.5C 382.097,86.393 380.264,87.393 379,89.5C 377,92.8333 375,96.1667 373,99.5C 368.723,111.609 365.223,123.943 362.5,136.5C 359.506,137.748 356.506,137.748 353.5,136.5C 352.453,132.222 351.62,127.888 351,123.5C 348.049,130.577 344.215,137.077 339.5,143C 332.87,145.764 328.036,143.931 325,137.5C 322.532,129.691 321.032,121.691 320.5,113.5C 318.136,116.699 315.97,120.032 314,123.5C 306.819,128.669 302.152,127.002 300,118.5C 297.552,122.615 294.719,126.448 291.5,130C 284.007,132.827 279.174,130.327 277,122.5C 275.266,115.056 273.433,107.723 271.5,100.5C 269.196,102.431 267.362,104.764 266,107.5C 263.059,115.323 260.726,123.323 259,131.5C 256.936,132.591 254.769,132.758 252.5,132C 251.838,118.878 251.005,105.711 250,92.5C 249.624,89.0249 248.291,86.0249 246,83.5C 240.628,88.2334 237.294,94.2334 236,101.5C 232.465,112.217 230.632,123.217 230.5,134.5C 227.482,134.665 224.482,134.498 221.5,134C 220.773,132.601 220.273,131.101 220,129.5C 211.604,144.721 201.937,145.388 191,131.5C 188.667,127.833 186.333,124.167 184,120.5C 181.17,126.316 178.337,132.149 175.5,138C 172.743,138.782 170.243,138.282 168,136.5C 161.671,146.675 155.004,147.008 148,137.5C 145.478,129.365 144.144,121.031 144,112.5C 141.785,117.1 138.952,121.266 135.5,125C 130.361,127.506 126.194,126.339 123,121.5C 120.388,128.244 116.222,133.744 110.5,138C 105.56,139.041 100.894,138.374 96.5,136C 90.9728,129.109 87.4728,121.276 86,112.5C 81.6763,91.3744 84.0096,71.041 93,51.5C 95.8871,46.4341 100.054,43.1008 105.5,41.5 Z M 106.5,47.5 C 109.168,48.4567 110.668,50.4567 111,53.5C 111.351,70.1181 107.018,85.4515 98,99.5C 95.6038,81.314 98.4371,63.9806 106.5,47.5 Z M 141.5,88.5 C 143.167,88.5 144.833,88.5 146.5,88.5C 146.82,93.5306 145.653,98.1973 143,102.5C 140.088,108.658 136.921,114.658 133.5,120.5C 132.675,121.386 131.675,121.719 130.5,121.5C 129.417,108.799 133.084,97.7993 141.5,88.5 Z M 318.5,88.5 C 320.167,88.5 321.833,88.5 323.5,88.5C 321.389,100.842 316.389,111.842 308.5,121.5C 306.196,108.749 309.529,97.7494 318.5,88.5 Z"/></g>
<g><path style="opacity:1" fill="#202020" d="M 169.5,130.5 C 170.776,131.386 170.776,132.386 169.5,133.5C 168.913,132.767 168.913,131.767 169.5,130.5 Z"/></g>
<g><path style="opacity:0.94" fill="#020202" d="M 194.5,182.5 C 196.715,183.268 199.048,183.935 201.5,184.5C 201.277,199.517 200.61,214.517 199.5,229.5C 199.368,233.349 199.868,237.016 201,240.5C 205.562,228.816 208.896,216.816 211,204.5C 215.073,191.601 223.906,184.935 237.5,184.5C 238.113,174.603 239.946,164.936 243,155.5C 246.31,153.337 249.81,153.004 253.5,154.5C 253.833,156 254.167,157.5 254.5,159C 253.043,178.14 252.043,197.307 251.5,216.5C 251.477,226.348 252.31,236.014 254,245.5C 257.82,233.224 261.486,220.89 265,208.5C 265.669,197.136 266.669,185.803 268,174.5C 268.821,165.727 270.654,157.227 273.5,149C 276.76,148.216 279.927,148.383 283,149.5C 282.378,166.503 281.711,183.503 281,200.5C 283.98,194.709 287.813,189.543 292.5,185C 297.92,182.144 302.087,183.311 305,188.5C 306.273,200.763 306.94,213.097 307,225.5C 307.105,229.37 307.938,233.037 309.5,236.5C 310.892,235.395 312.059,234.061 313,232.5C 315.667,226.5 318.333,220.5 321,214.5C 321.355,189.475 333.855,178.975 358.5,183C 359.126,183.75 359.626,184.584 360,185.5C 359.805,199.491 359.305,213.491 358.5,227.5C 358.833,230.833 359.167,234.167 359.5,237.5C 366.095,227.314 371.929,216.647 377,205.5C 378.142,195.852 379.142,186.186 380,176.5C 380.689,175.643 381.522,174.977 382.5,174.5C 390.811,177.825 399.478,179.325 408.5,179C 410.028,180.648 410.695,182.648 410.5,185C 408.375,197.248 407.042,209.581 406.5,222C 406.546,227.213 407.046,232.38 408,237.5C 408.29,239.044 408.956,240.377 410,241.5C 413.427,238.744 416.093,235.41 418,231.5C 421.392,223.991 424.392,216.325 427,208.5C 427.333,200.833 427.667,193.167 428,185.5C 428.465,180.369 429.465,175.369 431,170.5C 433.796,169.789 436.63,169.122 439.5,168.5C 440.086,168.709 440.586,169.043 441,169.5C 434.922,225.808 440.922,227.474 459,174.5C 462.243,172.737 465.743,172.071 469.5,172.5C 470.6,185.494 470.767,198.494 470,211.5C 474.321,208.179 478.321,204.512 482,200.5C 483.732,200.734 484.566,201.734 484.5,203.5C 481.223,209.945 476.389,214.945 470,218.5C 468.253,231.175 463.92,242.841 457,253.5C 449.653,261.706 441.319,263.04 432,257.5C 428.106,249.555 429.106,242.222 435,235.5C 440.706,229.73 447.206,225.063 454.5,221.5C 455.918,215.24 456.418,208.907 456,202.5C 453.534,209.275 449.7,215.108 444.5,220C 439.377,222.375 434.877,221.542 431,217.5C 427.487,227.369 422.32,236.202 415.5,244C 409.392,246.61 403.892,245.776 399,241.5C 393.823,230.744 392.157,219.41 394,207.5C 394.515,199.563 395.681,191.73 397.5,184C 397.095,183.055 396.428,182.388 395.5,182C 392.905,181.774 390.405,181.274 388,180.5C 386.931,198.987 384.098,217.154 379.5,235C 377.866,235.494 376.199,235.66 374.5,235.5C 374.607,230.79 374.774,226.123 375,221.5C 371.717,229.24 367.55,236.407 362.5,243C 354.823,245.745 349.656,243.245 347,235.5C 345.428,228.174 344.095,220.84 343,213.5C 340.915,218.914 337.415,223.08 332.5,226C 328.654,227.157 325.821,225.991 324,222.5C 321.737,228.861 318.571,234.694 314.5,240C 304.964,244.459 299.797,241.292 299,230.5C 298.199,216.842 297.699,203.176 297.5,189.5C 295.408,189.561 293.908,190.561 293,192.5C 284.922,205.745 279.422,219.912 276.5,235C 274.5,235.667 272.5,235.667 270.5,235C 268.494,232.158 267.161,228.992 266.5,225.5C 264.281,233.706 261.447,241.706 258,249.5C 251.139,253.286 246.139,251.62 243,244.5C 239.27,233.122 236.937,221.455 236,209.5C 234.242,215.116 231.908,220.449 229,225.5C 223.904,229.325 218.737,229.325 213.5,225.5C 211.301,232.262 208.801,238.929 206,245.5C 197.258,251.131 191.925,248.798 190,238.5C 188.381,228.19 188.048,217.857 189,207.5C 186.596,215.478 182.762,222.645 177.5,229C 169.626,233.375 163.793,231.541 160,223.5C 158.696,217.577 158.196,211.577 158.5,205.5C 152.827,206.752 147.16,206.752 141.5,205.5C 143.769,215.662 141.769,224.829 135.5,233C 127.254,237.426 120.42,235.926 115,228.5C 112.873,232.589 110.373,236.423 107.5,240C 98.5437,244.435 93.3771,241.602 92,231.5C 90.7997,217.526 90.2997,203.526 90.5,189.5C 89.1779,189.33 88.0113,189.663 87,190.5C 78.3906,203.989 72.7239,218.656 70,234.5C 67.0844,236.013 64.4177,235.68 62,233.5C 60.2693,228.666 59.2693,223.666 59,218.5C 56.064,223.373 53.3973,228.373 51,233.5C 44.2397,241.478 36.7397,242.311 28.5,236C 21.5592,227.09 18.2259,216.923 18.5,205.5C 18.3328,193.792 22.6661,184.292 31.5,177C 43.0211,171.832 50.0211,175.499 52.5,188C 51.561,190.3 49.8943,191.3 47.5,191C 45.9315,188.696 44.7648,186.196 44,183.5C 42.0861,178.847 39.7528,178.514 37,182.5C 35.0728,185.948 33.7394,189.615 33,193.5C 31.4683,206.166 32.8016,218.499 37,230.5C 37.9533,232.455 39.2866,234.122 41,235.5C 48.1992,226.442 53.8659,216.442 58,205.5C 58.7596,194.478 59.7596,183.478 61,172.5C 61.8223,164.38 63.6557,156.547 66.5,149C 69.7603,148.216 72.9269,148.383 76,149.5C 75.2863,166.493 74.6197,183.493 74,200.5C 76.4924,194.353 80.3257,189.186 85.5,185C 90.8201,182.298 94.9867,183.465 98,188.5C 99.2767,201.431 99.9434,214.431 100,227.5C 100.297,230.914 100.964,234.247 102,237.5C 106.113,231.609 109.446,225.276 112,218.5C 112.485,206.663 116.985,196.83 125.5,189C 128.303,188.245 130.97,188.578 133.5,190C 136.867,193.703 140.534,197.036 144.5,200C 149.066,201.309 153.733,201.809 158.5,201.5C 158.221,194.062 158.888,186.728 160.5,179.5C 163.366,178.792 166.2,178.125 169,177.5C 170.397,178.226 171.231,179.393 171.5,181C 169.919,193.458 169.419,205.958 170,218.5C 170.311,220.556 170.811,222.556 171.5,224.5C 172.002,225.521 172.668,225.688 173.5,225C 180.602,211.626 186.769,197.792 192,183.5C 192.671,182.748 193.504,182.414 194.5,182.5 Z M 341.5,188.5 C 346.068,188.083 347.568,190.083 346,194.5C 342.183,204.14 337.349,213.14 331.5,221.5C 329.206,208.72 332.54,197.72 341.5,188.5 Z M 233.5,189.5 C 234.376,189.369 235.043,189.702 235.5,190.5C 231.284,201.323 226.784,211.99 222,222.5C 219.326,213.012 220.66,204.012 226,195.5C 228.114,192.879 230.614,190.879 233.5,189.5 Z M 128.5,197.5 C 130.888,198.219 132.388,199.885 133,202.5C 135.79,209.393 136.123,216.393 134,223.5C 132.894,226.726 131.061,229.393 128.5,231.5C 125.184,227.879 123.851,223.546 124.5,218.5C 124.809,211.289 126.142,204.289 128.5,197.5 Z M 451.5,229.5 C 452.586,229.62 453.253,230.287 453.5,231.5C 452.233,238.468 450.066,245.135 447,251.5C 444.327,255.6 441.66,255.934 439,252.5C 438.262,248.739 438.595,245.072 440,241.5C 443.364,236.971 447.197,232.971 451.5,229.5 Z"/></g>
<g><path style="opacity:1" fill="#1c1c1c" d="M 194.5,182.5 C 197.388,181.99 199.721,182.656 201.5,184.5C 199.048,183.935 196.715,183.268 194.5,182.5 Z"/></g>
</svg>
