<?xml version="1.0" standalone="no"?>
<!DOCTYPE svg PUBLIC "-//W3C//DTD SVG 20010904//EN"
 "http://www.w3.org/TR/2001/REC-SVG-20010904/DTD/svg10.dtd">
<svg version="1.0" xmlns="http://www.w3.org/2000/svg"
 width="500.000000pt" height="300.000000pt" viewBox="0 0 500.000000 300.000000"
 preserveAspectRatio="xMidYMid meet">

<g transform="translate(0.000000,300.000000) scale(0.100000,-0.100000)"
fill="#000000" stroke="none">
<path d="M986 2530 c-81 -75 -125 -210 -133 -406 -9 -212 33 -388 111 -470 37
-38 48 -44 85 -44 23 0 55 7 71 15 32 17 85 87 102 137 l11 31 19 -26 c15 -21
28 -27 57 -27 41 0 69 24 112 95 l23 39 13 -103 c7 -57 22 -123 33 -148 36
-82 124 -90 174 -16 14 20 27 30 31 24 3 -6 20 -11 36 -11 28 0 33 6 70 86 22
48 44 83 48 78 4 -5 29 -39 55 -76 52 -75 115 -119 171 -121 40 -1 66 20 103
83 l27 45 5 -30 c5 -28 8 -30 50 -30 l45 0 7 75 c20 201 101 430 152 430 35 0
56 -121 56 -320 l0 -158 28 -5 c36 -7 46 6 65 83 22 95 55 176 84 211 32 38
37 31 53 -75 20 -130 47 -187 98 -207 43 -16 76 5 128 85 l26 38 16 -33 c14
-29 23 -35 55 -37 46 -4 59 6 106 78 l36 55 7 -78 c17 -189 69 -266 158 -236
31 11 63 53 108 144 l30 60 6 -40 c16 -97 18 -100 61 -97 22 2 41 5 43 7 2 2
12 39 21 82 45 199 93 320 155 398 44 54 50 30 56 -208 4 -177 8 -217 23 -244
31 -57 115 -57 163 0 46 55 133 265 116 281 -18 18 -40 3 -51 -36 -17 -57 -74
-181 -101 -218 -54 -75 -75 -8 -66 210 7 169 0 219 -35 256 -28 30 -81 32
-127 4 -31 -19 -88 -98 -115 -157 -10 -25 -12 -16 -17 82 l-5 110 -46 3 c-57
4 -55 8 -69 -178 l-11 -135 -56 -112 c-31 -61 -67 -124 -80 -140 l-24 -28 7
277 7 277 -99 0 c-55 0 -113 -5 -131 -10 -68 -21 -143 -140 -143 -227 0 -42
-96 -202 -121 -202 -18 0 -31 48 -44 162 -15 142 -30 171 -89 176 -32 3 -42
-2 -74 -35 -21 -21 -45 -49 -54 -63 l-17 -25 0 36 c-1 53 -21 150 -37 182 -8
15 -30 35 -49 44 -50 24 -102 6 -154 -54 l-41 -46 0 72 0 71 -45 0 c-38 0 -45
-3 -50 -22 -13 -60 -25 -204 -25 -310 0 -136 -15 -181 -82 -251 l-38 -41 -29
28 c-18 18 -50 78 -85 163 l-57 135 81 155 c44 85 80 159 80 164 0 5 -16 9
-35 9 -46 0 -70 -26 -126 -133 -23 -45 -44 -77 -46 -72 -2 6 -23 57 -46 115
l-42 105 -35 0 c-32 0 -35 -3 -38 -33 -3 -33 37 -204 64 -272 l16 -39 -71
-138 c-39 -76 -82 -151 -96 -168 l-24 -30 0 95 c0 52 4 169 8 260 4 91 5 173
3 183 -4 16 -16 17 -118 14 -109 -3 -115 -5 -151 -34 -49 -38 -80 -96 -97
-175 -16 -75 -82 -220 -120 -265 -60 -71 -97 -25 -127 155 l-9 56 56 92 c93
154 163 340 164 434 0 45 -21 102 -47 126 -20 19 -37 24 -75 24 -43 0 -54 -5
-92 -40z m122 -41 c19 -35 9 -189 -16 -260 -29 -83 -104 -239 -113 -239 -12 0
-11 159 1 245 22 150 73 292 103 282 7 -2 18 -14 25 -28z m372 -409 c0 -26
-142 -303 -157 -308 -19 -5 -17 111 3 179 18 62 69 144 99 157 26 12 55 -3 55
-28z m1766 -8 c-7 -32 -118 -258 -140 -287 -24 -30 -37 -2 -30 65 16 157 97
290 157 258 14 -7 17 -17 13 -36z"/>
<path d="M673 1502 c-22 -14 -57 -213 -73 -426 l-11 -139 -64 -126 c-60 -120
-95 -171 -115 -171 -14 0 -48 71 -64 132 -35 134 -28 291 17 377 32 63 55 61
87 -6 19 -41 30 -53 48 -53 44 0 21 95 -34 139 -77 61 -210 -28 -250 -166 -26
-89 -16 -250 20 -328 44 -96 91 -135 164 -135 64 0 101 33 151 135 25 49 46
85 47 80 1 -6 8 -43 14 -83 13 -78 29 -98 74 -86 20 5 26 15 35 67 20 103 51
190 100 283 45 84 72 116 86 102 4 -4 10 -103 14 -220 6 -181 10 -219 27 -253
17 -36 23 -40 63 -43 52 -4 80 18 117 91 l24 47 31 -34 c56 -64 155 -54 205
21 27 41 46 136 38 193 l-6 45 86 0 86 0 0 -52 c0 -133 38 -203 110 -203 72 0
95 20 149 132 l49 102 4 -160 c2 -135 6 -165 23 -199 22 -44 56 -62 99 -51 30
8 63 69 93 176 l16 59 28 -15 c15 -7 46 -14 68 -14 49 0 78 31 111 121 l24 64
7 -35 c4 -19 12 -73 19 -119 24 -177 71 -271 135 -271 52 0 77 39 111 169 28
106 44 139 44 87 0 -35 20 -84 36 -90 34 -13 63 5 70 43 28 170 139 417 183
409 14 -3 17 -31 21 -213 5 -170 9 -218 23 -250 21 -48 31 -55 78 -55 46 0 88
44 126 132 24 54 27 57 43 43 9 -8 32 -15 52 -15 38 0 57 17 104 90 l29 45 7
-83 c14 -162 52 -236 123 -236 49 0 87 40 141 149 25 49 46 91 48 92 1 1 -2
-29 -7 -68 -11 -78 -2 -103 31 -83 27 18 55 172 87 486 l6 57 47 -6 c26 -3 49
-7 51 -9 3 -2 -1 -32 -7 -67 -19 -100 -33 -297 -27 -357 9 -74 30 -139 58
-173 29 -37 98 -48 144 -23 32 16 93 100 118 161 49 117 42 108 67 91 32 -23
100 -20 130 4 14 11 44 56 67 100 23 44 44 80 47 80 3 0 3 -17 0 -37 -3 -21
-8 -68 -11 -105 l-6 -67 -73 -45 c-167 -104 -232 -240 -151 -316 38 -35 120
-40 175 -9 75 42 150 188 175 338 6 38 18 55 86 121 44 42 79 84 79 93 0 35
-25 27 -79 -27 -31 -31 -59 -56 -63 -56 -4 0 -6 83 -5 185 1 121 -2 188 -9
195 -7 7 -27 8 -52 4 l-41 -6 -46 -127 c-54 -148 -114 -266 -135 -266 -26 0
-33 88 -21 245 6 80 14 155 17 168 6 20 3 22 -37 22 -24 0 -50 -4 -56 -8 -17
-11 -43 -187 -43 -290 0 -67 -6 -100 -30 -169 -47 -133 -117 -253 -148 -253
-36 0 -42 235 -10 452 25 180 26 178 -83 178 -37 0 -83 7 -102 15 -20 8 -50
15 -66 15 -36 0 -38 -7 -47 -160 l-7 -115 -78 -155 c-43 -85 -88 -166 -99
-180 l-21 -25 7 278 6 277 -114 -2 c-105 -3 -118 -5 -155 -30 -52 -34 -93
-115 -103 -201 -7 -63 -37 -145 -92 -250 -53 -99 -59 -82 -67 193 -7 235 -14
267 -64 284 -47 17 -93 -16 -155 -109 l-53 -80 6 55 c12 102 32 465 28 478 -3
7 -22 12 -44 12 -29 0 -42 -6 -53 -22 -20 -32 -56 -268 -63 -412 -4 -101 -12
-149 -49 -286 -51 -187 -72 -250 -84 -250 -17 0 -23 123 -17 385 4 148 10 327
13 398 l7 127 -51 0 -51 0 -16 -52 c-9 -29 -22 -95 -31 -147 -8 -52 -17 -98
-20 -103 -3 -4 -17 -8 -31 -8 -78 0 -166 -58 -203 -134 -11 -24 -25 -73 -31
-107 -13 -82 -89 -319 -102 -319 -7 0 -7 70 -2 208 5 114 9 245 9 292 l1 85
-36 3 c-21 2 -40 -2 -46 -10 -6 -7 -36 -76 -67 -153 -141 -350 -173 -350 -162
-2 l7 207 -46 0 c-56 0 -60 -9 -70 -138 -7 -89 -8 -91 -35 -97 -51 -11 -107
13 -176 75 -41 37 -75 60 -89 60 -58 0 -134 -117 -155 -239 -12 -67 -76 -217
-102 -239 -26 -21 -31 9 -37 238 -7 240 -15 273 -70 285 -54 12 -102 -26 -166
-130 l-37 -60 6 45 c10 85 28 415 25 455 -4 38 -6 40 -39 43 -19 1 -40 -1 -47
-6z m2800 -406 c12 -32 -127 -321 -154 -321 -19 0 -14 123 7 186 37 115 124
195 147 135z m-1113 -3 c0 -10 -105 -274 -119 -302 -22 -39 -31 -22 -31 57 1
83 14 133 51 186 31 46 99 86 99 59z m-1026 -122 c43 -97 30 -232 -28 -280
-42 -35 -73 66 -56 178 12 76 38 161 49 161 5 0 20 -26 35 -59z m3196 -344
c-6 -29 -24 -81 -39 -114 -30 -63 -60 -85 -86 -63 -49 40 -9 153 78 220 59 45
65 40 47 -43z"/>
</g>
</svg>
